<svg xmlns="http://www.w3.org/2000/svg" width="512" height="512" viewBox="0 0 35 35" fill="none">
  <path d="M32.2883 26.8595C34.0056 24.1524 35 20.9423 35 17.4993C35 7.83508 27.1648 0 17.5 0C7.83519 0 0 7.83508 0 17.5C0 27.1649 7.83519 35 17.5 35C20.9986 35 24.2579 33.9728 26.9919 32.2041L32.016 33.5331C33.0133 33.7967 33.9227 32.8818 33.6525 31.8859L32.2883 26.8602V26.8595ZM17.5 27.4398C12.0075 27.4398 7.55487 22.9874 7.55487 17.495C7.55487 12.0027 12.0075 7.55023 17.5 7.55023C22.9925 7.55023 27.4451 12.0027 27.4451 17.495C27.4451 22.9874 22.9925 27.4398 17.5 27.4398Z" fill="#2C5697"/>
</svg>