<svg width="246" height="35" viewBox="0 0 246 35" fill="none" xmlns="http://www.w3.org/2000/svg">
<path d="M32.2883 26.8595C34.0056 24.1524 35 20.9423 35 17.4993C35 7.83508 27.1648 0 17.5 0C7.83519 0 0 7.83508 0 17.5C0 27.1649 7.83519 35 17.5 35C20.9986 35 24.2579 33.9728 26.9919 32.2041L32.016 33.5331C33.0133 33.7967 33.9227 32.8818 33.6525 31.8859L32.2883 26.8602V26.8595ZM17.5 27.4398C12.0075 27.4398 7.55487 22.9874 7.55487 17.495C7.55487 12.0027 12.0075 7.55023 17.5 7.55023C22.9925 7.55023 27.4451 12.0027 27.4451 17.495C27.4451 22.9874 22.9925 27.4398 17.5 27.4398Z" fill="#2C5697"/>
<path d="M230.644 14.1201L225.164 19.1601C223.964 19.9601 222.844 21.5201 221.164 22.0001C220.204 22.2401 218.924 21.9201 218.324 21.1201C217.484 19.8801 218.444 18.4801 219.244 17.5201C220.844 15.6801 222.524 14.0001 224.324 12.4001C225.484 11.4001 227.524 8.76006 227.524 8.76006C227.524 8.76006 227.524 6.24006 227.724 4.72006C227.844 3.76006 228.244 2.84006 228.684 2.40006C229.364 1.76006 230.764 1.60006 231.604 1.84006C232.844 2.20006 233.324 3.16006 233.444 4.40006C233.564 5.40006 233.484 8.04006 234.084 8.88006C234.524 9.52006 234.884 10.1201 235.404 10.6801C237.244 12.7601 239.044 14.9201 240.964 16.9201C242.204 18.2401 243.644 20.9601 241.404 22.0401C239.844 22.8001 238.364 21.5601 237.364 20.4801L230.644 14.1201ZM219.204 30.7201C217.524 30.5601 215.764 30.2001 215.764 28.1201C215.764 27.5601 215.964 27.0801 216.284 26.7201C217.124 25.8801 219.084 25.9201 219.164 25.9201L241.044 25.9601C242.404 25.9601 243.604 25.8001 244.484 26.5601C245.004 27.0401 245.324 27.6401 245.324 28.2801C245.324 29.0801 244.804 29.8001 244.004 30.0801C242.924 30.4801 241.764 30.6401 240.644 30.6801C236.764 30.8401 232.924 30.7201 229.364 30.7201C225.524 30.7201 221.604 30.8401 219.204 30.7201Z" fill="#2C5697"/>
<path d="M205.6 24.16L205.56 18.64C204.84 18.52 200 18.56 199.28 18.48C197.44 18.36 195.8 17.28 196.36 15.24C196.48 14.84 196.88 14.28 197.2 14C197.52 13.76 197.88 13.6 198.32 13.52C199.16 13.4 204.56 13.44 205.44 13.36H205.56C205.64 11 205.48 8.84002 205.56 6.48002V5.92002C205.56 4.52002 205.56 2.44002 206.52 1.48002C206.88 1.16002 207.48 0.960022 208 0.960022H208.08C210.68 1.08002 210.96 3.80002 210.96 5.48002V29.64C210.96 29.72 211.04 31.76 210.12 32.6C209.76 32.96 208.72 33.2 208.16 33.2C207.56 33.2 207 32.96 206.64 32.56C205.96 31.84 205.88 31 205.8 30.12C205.8 29.96 205.76 29.8 205.76 29.6C205.68 28.76 205.68 27.76 205.64 26.8C205.6 26.2 205.6 25.64 205.6 25.08V24.16ZM189.8 7.48002V22.04C189.8 22.8 189.72 23.52 189.76 24.24C189.76 24.6 189.76 25.04 190.04 25.28C190.36 25.56 190.88 25.52 191.28 25.52C191.88 25.52 192.52 25.56 193.12 25.56C194.48 25.56 197.96 25.52 199.28 25.68C200.2 25.8 201.24 25.92 202.04 26.44C202.44 26.72 202.64 27.2 202.68 27.68C202.72 27.92 202.72 28.16 202.72 28.44C202.68 29.04 202.48 29.6 202.08 30.04C201.68 30.48 201.16 30.72 200.6 30.84C199.84 30.96 199.16 31.08 198.4 31.08C197.92 31.08 195.68 31.04 195.24 31.04H190.76C189.72 31.04 188.72 30.88 187.68 30.84C186.88 30.8 185.96 30.56 185.36 30C184.8 29.44 184.52 28.72 184.36 27.96C184.04 26.24 184.2 24.4 184.2 22.64V13.24C184.2 12.32 184.24 11.36 184.2 10.4C184.2 10.24 184.12 6.92002 184.2 5.16002C184.28 4.08002 184.56 2.76002 185.92 2.20002C186.52 2.00002 187.16 1.84002 187.8 2.00002C188.44 2.16002 189.04 2.56002 189.32 3.24002C189.64 4.00002 189.76 4.84002 189.76 5.72002C189.76 6.32002 189.76 6.88002 189.8 7.48002Z" fill="#2C5697"/>
<path d="M176.478 17.8401C177.838 18.8001 177.678 20.9201 176.198 21.6801C175.038 22.3201 173.678 22.4801 172.478 22.4801H170.838C169.358 22.5201 160.038 22.4401 158.558 22.4801H157.838C156.118 22.4801 153.678 22.3201 152.518 20.9601C151.438 19.7201 151.598 16.7601 151.598 16.6001V5.96007C151.598 5.80007 151.598 4.12007 151.958 3.52007C152.438 2.76007 152.838 2.44007 153.638 2.32007C154.038 2.24007 155.038 2.20007 155.038 2.20007H171.838C171.838 2.20007 172.718 2.24007 173.158 2.20007H173.238C173.718 2.20007 174.238 2.24007 174.718 2.40007C175.198 2.52007 175.718 2.60007 176.078 3.04007C176.358 3.40007 176.598 3.88007 176.678 4.36007C176.758 4.76007 176.758 5.12007 176.718 5.56007C176.558 6.68007 175.358 7.64007 174.198 7.64007H157.078V9.68007V10.0401C158.798 10.1201 167.958 10.0401 167.958 10.0401H171.838C172.078 10.0401 172.358 10.0801 172.638 10.0401H173.718C174.318 10.0401 174.958 10.1201 175.478 10.4401C176.278 10.9201 176.398 12.0001 176.318 12.8401C176.318 13.9201 175.278 14.6401 174.078 14.6401H169.278C169.278 14.6401 160.558 14.6801 159.198 14.6801C158.518 14.6801 157.798 14.6801 157.078 14.6401C157.158 16.7601 157.078 15.0801 157.078 15.1201V16.7601C157.078 17.4801 157.198 17.0401 157.318 17.0801C157.678 17.2801 158.598 17.4001 159.638 17.4001H159.798C160.678 17.3601 169.398 17.3601 170.278 17.4001C172.398 17.4001 172.598 17.4001 173.478 17.3601C174.318 17.3601 175.198 17.3601 176.038 17.6401C176.198 17.6801 176.318 17.7601 176.478 17.8401ZM152.958 31.0001C151.278 30.8401 149.518 30.4801 149.518 28.4001C149.518 27.8401 149.718 27.3601 150.038 27.0001C150.878 26.1601 152.838 26.2001 152.918 26.2001L175.198 26.2401C176.558 26.2401 177.758 26.0801 178.638 26.8401C179.158 27.3201 179.478 27.9201 179.478 28.5601C179.478 29.3601 178.958 30.0801 178.158 30.3601C177.078 30.7601 175.918 30.9201 174.798 30.9601C170.918 31.1201 167.078 31.0001 163.518 31.0001C159.678 31.0001 155.358 31.1201 152.958 31.0001Z" fill="#2C5697"/>
<path d="M134.821 7.00003C134.701 7.12003 134.541 7.20003 134.341 7.28003C133.381 7.72003 132.141 7.36003 131.101 7.60003C131.221 8.32003 131.221 9.00003 131.221 9.44003V26.48C131.221 26.4 133.501 26.76 133.701 26.8C134.981 27 135.661 27.24 135.501 28.84C135.301 31.48 133.701 31.04 131.661 31.08C130.341 31.12 128.981 31.08 127.701 31.08C125.661 31.08 123.661 31.08 121.661 31.12C120.301 31.12 118.941 31.12 117.541 31.08C116.221 31.08 113.741 30.68 113.541 28.92C113.261 26.44 116.501 26.72 118.021 26.56C117.981 25.56 118.021 24.6 118.021 23.64V10C118.021 9.84003 117.901 8.80003 117.941 7.60003C116.381 7.52003 114.541 7.76003 113.741 6.08003C113.101 4.84003 113.861 3.56003 115.021 3.16003C116.221 2.72003 117.781 2.68003 119.061 2.68003C123.301 2.68003 127.501 2.72003 131.741 2.72003C132.781 2.72003 134.221 2.88003 134.981 3.72003C135.701 4.56003 135.741 6.28003 134.821 7.00003ZM143.661 13.52H143.741C143.981 13.52 144.221 13.6 144.501 13.6C144.781 13.64 145.101 13.68 145.421 13.72C146.021 13.84 146.661 14.08 146.941 14.68C147.141 15 147.221 15.36 147.221 15.72C147.221 16.12 147.221 16.48 147.101 16.88C147.021 17.28 146.901 17.84 146.541 18.12C146.221 18.36 145.861 18.56 145.461 18.64C144.621 18.76 143.181 18.64 142.341 18.68C142.261 18.68 142.221 18.72 142.221 18.72C142.221 18.72 142.181 18.72 142.181 18.88C142.141 20.2 142.181 22.52 142.181 23.88C142.221 25.24 142.221 26.64 142.181 27.96V28.52C142.181 29.92 142.181 31.96 141.221 32.92C140.901 33.28 140.461 33.48 139.941 33.48C139.941 33.48 139.901 33.44 139.861 33.44C137.261 33.36 136.981 30.24 136.981 28.56V4.80003C136.981 4.72003 136.941 2.72003 137.821 1.84003C138.181 1.48003 139.021 1.28003 139.621 1.28003C140.221 1.28003 140.741 1.52003 141.101 1.88003C141.821 2.64003 141.861 3.48003 141.941 4.36003C141.981 4.52003 141.981 4.68003 141.981 4.84003C142.101 5.72003 142.101 6.72003 142.141 7.68003C142.141 8.28003 142.181 8.80003 142.181 9.40003C142.141 9.72003 142.181 10 142.181 10.28V12.56C142.181 12.84 142.181 13.16 142.261 13.44C142.261 13.48 143.061 13.48 143.101 13.48C143.301 13.52 143.461 13.56 143.661 13.52ZM122.701 10.4C122.741 10.8 122.741 11.08 122.741 11.32L122.661 25.32C122.661 25.48 122.741 26.04 122.941 26.48H126.501V11.2C126.501 11.16 126.501 8.76003 126.381 8.04003C126.381 7.88003 126.341 7.72003 126.261 7.60003H122.981C122.861 7.72003 122.821 7.84003 122.781 8.04003C122.661 8.44003 122.661 9.64003 122.701 10.4Z" fill="#2C5697"/>
<path d="M107.203 17.64C108.083 17.68 109.083 17.84 109.843 18.44C110.203 18.72 110.403 19.2 110.403 19.68C110.403 20.2 110.203 20.96 109.883 21.24C109.043 22.04 106.963 21.96 106.883 21.96L85.563 22C84.363 22.04 82.883 22.12 82.003 21.4C81.403 20.96 81.083 20.44 81.083 19.84C81.083 19.12 81.643 18.2 82.483 17.92C83.603 17.56 84.803 17.68 86.003 17.64C88.603 17.56 89.443 17.64 92.123 17.64V15.64H89.563H88.883C87.243 15.64 84.923 15.56 83.843 14.52C82.803 13.64 82.923 11.16 82.963 11.04V3.72002C82.963 3.60002 82.923 2.36002 83.283 1.92002C83.723 1.36002 84.083 1.12002 84.843 1.04002C85.283 0.960021 86.203 0.960022 86.203 0.960022H103.963C104.443 0.960022 104.883 0.960022 105.363 1.08002C105.843 1.16002 106.283 1.24002 106.643 1.60002C106.963 1.84002 107.123 2.20002 107.203 2.52002C107.283 2.84002 107.323 3.12002 107.243 3.44002C107.123 4.28002 106.363 4.92002 105.243 4.92002H88.163V6.48002C89.763 6.52002 98.523 6.48002 98.563 6.48002H102.243C102.443 6.48002 102.723 6.52002 103.003 6.48002H104.043C104.563 6.48002 105.203 6.52002 105.683 6.80002C106.443 7.12002 106.603 7.92002 106.523 8.52002C106.483 8.84002 106.483 9.20002 106.243 9.44002C105.683 10.08 105.043 10.16 104.363 10.16H88.123L88.163 11.16C88.123 11.72 88.243 11.36 88.403 11.4C88.723 11.56 89.643 11.64 90.563 11.64H90.763C91.603 11.6 99.883 11.6 100.723 11.64H102.603C102.803 11.64 102.923 11.64 103.123 11.6H103.803C104.603 11.6 105.443 11.6 106.243 11.8C106.363 11.8 106.523 11.88 106.643 11.92C107.963 12.68 107.803 14.48 106.363 15.08C105.283 15.56 103.963 15.64 102.883 15.64H101.243C100.803 15.68 99.203 15.68 97.763 15.68C97.803 16.32 97.803 17.04 97.803 17.64C100.763 17.64 104.923 17.52 107.203 17.64ZM104.843 23.36C107.003 23.36 108.283 24.08 108.283 25.32V28.04C108.323 28.52 108.363 31.56 108.283 32.16C108.203 33.28 107.323 34.04 106.123 34.04C105.843 34.04 105.563 34 105.283 33.92C103.843 33.48 103.763 32.16 103.723 30.96C103.683 30.48 103.643 28.52 103.563 28.12C103.403 28.08 102.843 28 100.883 28C99.163 28 97.843 28.04 97.843 28.04H84.483C84.403 28.04 82.843 27.68 82.683 26.56C82.523 25.56 82.683 24.76 83.163 24.16C83.803 23.4 84.763 23.4 84.803 23.4L104.843 23.36Z" fill="#2C5697"/>
<path d="M61.48 2.16003C63.16 3.12003 64.28 4.32003 64.96 5.76003C65.64 7.20003 65.84 8.96003 65.72 11.12C65.4 15.88 61.92 18.92 57.4 18.92C56.6 18.92 55.92 18.92 55.36 18.92C54.84 18.92 54.28 18.92 53.72 18.8C53.16 18.8 52.6 18.56 52.04 18.48C51.48 18.24 50.92 17.92 50.2 17.48C49 16.68 48.12 15.56 47.64 14.24C47.24 13 47 11.56 47 10.24C47 8.80003 47.24 7.44003 47.8 6.24003C48.2 4.96003 49.16 4.00003 50.2 3.12003C51.16 2.32003 52.12 1.76003 53.36 1.44003C54.44 1.04003 55.72 0.960033 56.84 1.04003C57.4 1.20003 57.8 1.20003 58.16 1.20003C58.6 1.28003 58.92 1.28003 59.24 1.44003C59.6 1.52003 59.96 1.60003 60.28 1.76003C60.6 1.84003 61.04 2.08003 61.48 2.16003ZM74.84 28.4C75.6 28.4 76.08 29.16 76.24 30.04C76.32 31.08 76.08 31.72 75.68 32.28C75.32 32.6 74.96 32.84 74.64 32.92C74.4 32.92 74.2 33.08 73.84 33.08C72.96 33.08 72 33.08 70.96 33.08C69.28 33.08 67.64 33.08 65.96 33.08C64.16 33.08 62.4 33.08 60.48 33.08C59.04 33.08 57.6 33.08 56.12 33.08C55.48 33.08 54.92 33.08 54.28 33.08C53.16 33.08 52.36 33.08 51.72 32.76C51.16 32.44 50.76 31.72 50.76 31.16C50.76 31.16 50.76 25.24 50.76 25.04C50.76 24.84 50.76 24.6 50.76 24.28C50.76 24.04 50.76 23.72 50.76 23.48C50.76 23.24 50.76 23.04 50.76 22.92C50.92 22.36 51.16 21.92 51.56 21.6C52.12 21.24 52.6 21.04 53.24 21.04C53.36 21.04 54.12 21.16 54.28 21.16C54.6 21.24 54.92 21.36 55.16 21.72C55.24 21.92 55.48 22.16 55.56 22.48C55.72 22.84 55.72 23.16 55.8 23.48C55.8 23.92 55.8 24.28 55.8 24.48V25.24V26.52V27.72V28.28C55.92 28.28 56.6 28.28 56.6 28.28C56.6 28.28 57.48 28.36 58.48 28.36C59.4 28.36 70.4 28.28 72.76 28.36C73.12 28.36 73.44 28.36 73.76 28.36C73.84 28.36 74.24 28.4 74.84 28.4ZM60.92 11.56C60.92 10.88 60.92 10.32 60.92 9.88003C60.84 9.32003 60.72 8.88003 60.6 8.40004C60.36 8.00003 60.16 7.52003 59.8 7.20003C59.48 6.88003 59.04 6.64003 58.48 6.40003C57.8 6.24003 57.16 6.08003 56.48 6.08003C55.72 6.08003 55 6.24003 54.44 6.40003C53.8 6.76003 53.24 7.12004 52.8 7.68004C52.28 8.08003 52.04 8.80003 51.8 9.68003C51.8 10.24 51.8 10.8 51.88 11.36C51.88 11.88 52.12 12.44 52.44 12.88C52.8 13.36 53.24 13.68 53.72 14C54.28 14.32 54.92 14.56 55.8 14.68C56.36 14.68 56.92 14.68 57.48 14.56C58.04 14.56 58.48 14.44 59.04 14.12C59.48 13.92 59.96 13.56 60.28 13.12C60.6 12.68 60.84 12.12 60.92 11.56ZM76 4.64003V18.04C76 18.56 75.88 19.12 75.76 19.68C75.52 20.48 74.96 21.04 74.08 21.24C72.4 21.6 71.28 20.24 71.08 18.68C70.96 18.24 70.96 17.8 70.96 17.36C70.96 16.92 70.96 16.48 70.96 16L71.08 5.68004C71.08 4.16004 70.76 2.00003 72.56 1.20003C72.96 0.960033 73.52 0.960033 74.08 1.04003C75.32 1.20003 75.88 2.16003 76 3.28003C76 3.76003 76 4.32003 76 4.64003Z" fill="#2C5697"/>
</svg>
